<svg xmlns="http://www.w3.org/2000/svg" width="512" height="512" viewBox="0 0 512 512" version="1.1">
	<rect x="0" y="0" width="100%" height="100%" fill="#000000" />
	<path d="M 258.112 53.121 C 235.550 54.407, 219.980 57.446, 201 64.267 C 187.571 69.094, 177.003 74.443, 164.371 82.808 C 134.812 102.382, 111.288 129.412, 94.261 163.369 C 89.259 173.344, 81.070 196.574, 77.822 210 C 73.360 228.446, 71.922 251.316, 74.018 270.500 C 76.116 289.703, 82.898 314.570, 90.790 332 C 94.566 340.340, 108.701 361.686, 114.794 368.249 C 119.811 373.653, 130.955 382.379, 131.782 381.551 C 132.055 381.278, 131.008 379.355, 129.455 377.277 C 127.690 374.917, 127.387 374.157, 128.646 375.252 C 129.755 376.216, 131.035 376.666, 131.491 376.252 C 131.948 375.838, 131.957 376.175, 131.514 377 C 130.859 378.217, 130.960 378.265, 132.049 377.254 C 133.160 376.223, 132.841 375.228, 130.197 371.476 C 126.357 366.029, 122 356.001, 122 352.610 C 122 348.589, 127.821 333.326, 134.232 320.538 C 140.622 307.791, 146.658 298.297, 154.911 288.014 C 157.710 284.526, 160.033 281.408, 160.074 281.086 C 160.813 275.263, 166.156 256.578, 170.612 244.234 C 174.589 233.220, 184.848 208.991, 186.145 207.550 C 186.615 207.028, 186.990 206.128, 186.978 205.550 C 186.966 204.972, 186.076 205.625, 185 207 C 183.924 208.375, 183.034 209.129, 183.022 208.675 C 182.989 207.460, 191.801 194.026, 195.130 190.215 C 196.709 188.409, 198 186.280, 198 185.484 C 198 184.689, 196.869 183.754, 195.487 183.407 C 191.525 182.413, 185.181 174.431, 183.352 168.139 C 181.069 160.284, 182.003 150.917, 185.824 143.354 C 187.450 140.134, 189.732 136.642, 190.893 135.593 C 192.751 133.915, 193.477 133.826, 196.909 134.855 C 201.301 136.170, 210.977 142.977, 216.958 148.958 C 219.144 151.144, 222.737 154.072, 224.944 155.465 L 228.956 157.997 230.502 155.637 C 231.576 153.998, 234.323 152.602, 239.494 151.067 C 257.976 145.580, 281.794 141.893, 290.798 143.124 C 297.633 144.059, 309.496 148.238, 329.926 156.907 C 340.080 161.215, 347.484 163.636, 354.926 165.080 C 365.796 167.189, 375.383 170.951, 376.358 173.489 C 376.907 174.922, 376.675 174.993, 366.250 176.592 C 364.462 176.866, 363 177.427, 363 177.837 C 363 178.248, 365.752 179.847, 369.116 181.391 L 375.231 184.198 374.788 189.538 C 374.137 197.387, 373.296 197.999, 363.128 198.008 C 352.530 198.017, 344.128 199.325, 334.513 202.464 C 324.630 205.690, 321.628 207.357, 316.790 212.303 C 311.936 217.265, 304.787 227.999, 301.988 234.527 C 297.565 244.846, 298.490 256.831, 304.668 269.251 C 308.563 277.080, 314.199 286.115, 316.149 287.653 C 316.892 288.239, 319.662 289.527, 322.303 290.516 C 326.301 292.011, 327.895 292.132, 331.802 291.238 C 334.384 290.647, 336.687 290.354, 336.919 290.586 C 337.151 290.818, 336.318 292.097, 335.067 293.429 C 333.815 294.761, 330.623 296.371, 327.972 297.007 C 324.022 297.954, 321.666 297.860, 314.906 296.481 C 310.023 295.485, 303.732 294.946, 299.485 295.161 C 292.996 295.489, 291.709 295.928, 285.999 299.762 C 282 302.447, 280.386 304.011, 281.594 304.029 C 283.138 304.053, 282.836 304.649, 280 307.171 C 270.901 315.263, 263.293 323, 264.435 323 C 264.790 323, 266.926 322.058, 269.183 320.907 C 273.007 318.956, 273.233 318.939, 272.520 320.657 C 272.099 321.671, 271.299 323.635, 270.744 325.022 C 270.001 326.877, 270.298 330.888, 271.867 340.172 C 273.040 347.117, 273.999 354.757, 273.997 357.150 C 273.994 362.318, 270.834 381.922, 268.535 391.037 C 267.639 394.592, 265.579 401.550, 263.958 406.500 C 262.337 411.450, 260.800 416.850, 260.542 418.500 C 260.283 420.150, 259.800 422.850, 259.468 424.500 C 258.953 427.056, 259.382 426.709, 262.369 422.146 C 266.553 415.756, 267.303 414.917, 266.501 417.530 C 264.985 422.464, 274.231 403.282, 278.378 392.890 C 284.063 378.640, 287 367.465, 286.998 360.090 C 286.998 357.016, 286.055 349.550, 284.903 343.500 C 283.752 337.450, 283.016 330.646, 283.267 328.380 C 283.963 322.118, 291.541 311.974, 298.145 308.463 C 303.563 305.583, 308.758 305.123, 318.883 306.626 C 332.643 308.669, 334.661 307.880, 342.222 297.500 C 351.062 285.366, 351.006 285.515, 349.907 276.936 C 347.971 261.814, 352.420 241.991, 361.307 226.144 C 362.959 223.198, 368.075 216.911, 372.676 212.174 C 378.288 206.396, 381.346 202.398, 381.966 200.030 C 389.128 172.682, 389.191 170.774, 383.130 165.009 C 380.369 162.382, 377.437 160.944, 371.471 159.289 C 367.087 158.073, 360.800 156.544, 357.500 155.891 C 354.200 155.239, 343.625 151.235, 334 146.994 C 315.317 138.762, 302.486 133.842, 294.667 131.913 C 291.746 131.192, 286.998 130.963, 282.667 131.333 C 275.073 131.981, 246.727 137.083, 236.276 139.682 C 232.853 140.533, 229.028 140.972, 227.776 140.657 C 226.524 140.342, 223.823 138.501, 221.774 136.567 C 217.722 132.742, 206.675 126.814, 198.093 123.861 C 195.120 122.837, 192.376 122, 191.996 122 C 190.885 122, 182.332 130.161, 179.100 134.304 C 177.468 136.396, 175.111 141.346, 173.862 145.304 C 169.447 159.294, 171.655 173.324, 179.916 183.775 L 183.687 188.546 177.594 197.034 C 174.242 201.703, 169.516 208.893, 167.092 213.011 C 164.668 217.130, 160.985 223.200, 158.908 226.500 C 156.832 229.800, 154.816 233.850, 154.428 235.500 C 154.041 237.150, 153.272 239.073, 152.720 239.774 C 150.529 242.552, 153.005 241.936, 156.586 238.812 C 159.444 236.318, 160.185 235.994, 159.584 237.500 C 157.310 243.202, 152.641 257.602, 150.361 265.945 C 147.826 275.222, 147.629 275.553, 139.305 284.571 C 134.644 289.620, 129.943 295.209, 128.859 296.992 L 126.888 300.232 130.694 297.893 L 134.500 295.554 130.940 299.735 C 126.761 304.643, 116.276 323.012, 112.952 331.250 C 111.676 334.412, 110.348 337, 110 337 C 107.529 337, 97.058 310.452, 93.042 294.010 C 88.919 277.124, 87.620 263.565, 88.346 245 C 89.489 215.763, 97.368 188.339, 112.725 160.146 C 126.518 134.824, 145.826 113.102, 167.523 98.499 C 188.610 84.306, 211.049 75.949, 241.559 70.924 C 252.472 69.126, 257.086 68.878, 271 69.337 C 295.302 70.138, 311.660 73.423, 332.500 81.687 C 353.534 90.028, 376.817 106.771, 392.152 124.586 C 413.580 149.478, 429.652 182.485, 437.149 217 C 439.098 225.973, 439.435 230.481, 439.465 248 C 439.503 270.384, 438.695 276.214, 432.810 296 C 423.101 328.645, 406.396 355.974, 380.778 381.123 C 368.712 392.967, 358.138 401.162, 345.779 408.245 C 341.226 410.855, 337.950 413.004, 338.500 413.021 C 341.121 413.101, 314.220 425.502, 302.610 429.565 C 287.626 434.808, 267.744 436.907, 250.585 435.057 C 230.401 432.881, 208.216 425.837, 186.604 414.744 C 176.489 409.552, 161.606 400.203, 154.569 394.619 C 149.750 390.796, 142 386.907, 142 388.312 C 142 388.879, 142.787 390.251, 143.750 391.360 C 145.305 393.154, 145.138 393.127, 142.250 391.121 C 138.304 388.380, 138.033 389.381, 141.687 393.195 C 143.550 395.140, 143.918 396, 142.887 396 C 142.069 396, 140.956 395.663, 140.413 395.250 C 137.160 392.777, 147.611 402.020, 153 406.381 C 181.812 429.699, 218.540 443.948, 256.581 446.568 C 274.147 447.778, 297.810 443.990, 317.237 436.859 C 348.402 425.419, 365.075 415.454, 388.309 394.380 C 414.663 370.476, 438.640 328.855, 447.408 291.790 C 452.403 270.680, 452.502 269.873, 452.392 251.500 C 452.302 236.542, 451.844 231.219, 449.680 220 C 444.377 192.502, 435.413 167.923, 422.931 146.653 C 421.044 143.436, 418.492 138.986, 417.259 136.763 C 413.842 130.598, 401.108 115.381, 392.344 106.989 C 381.481 96.588, 375.396 91.535, 366.844 85.818 C 358.499 80.239, 340.425 71.151, 331.500 68.048 C 318.949 63.683, 301.781 58.965, 292.325 57.283 C 284.627 55.913, 283.150 55.405, 285.500 54.936 C 288.209 54.396, 288.015 54.269, 283.500 53.625 C 274.416 52.329, 272.621 52.294, 258.112 53.121 M 280 165.132 C 280 169.099, 283.171 174.279, 287.137 176.790 L 290.206 178.733 286.853 179.951 L 283.500 181.169 287.760 183.286 C 291.698 185.244, 292.545 185.314, 298.966 184.213 C 305.612 183.073, 317 178.411, 317 176.830 C 317 176.416, 315.087 175.587, 312.750 174.988 C 306.892 173.486, 303.041 171.940, 291.861 166.602 C 286.560 164.071, 281.722 162, 281.111 162 C 280.500 162, 280 163.409, 280 165.132 M 352.531 207.113 C 332.835 209.982, 319 219.836, 311.420 236.395 C 306.538 247.058, 308.494 259.445, 317.161 272.747 C 319.431 276.231, 322.409 279.963, 323.779 281.041 C 326.789 283.409, 331.589 283.548, 336.902 281.423 L 340.844 279.845 341.475 272.173 C 342.323 261.851, 348.158 238.753, 352.601 228.132 C 354.586 223.384, 356.436 218.513, 356.711 217.306 C 356.986 216.100, 358.734 213.334, 360.596 211.159 C 363.367 207.922, 363.695 207.097, 362.408 206.603 C 360.640 205.925, 360.720 205.921, 352.531 207.113" stroke="none" fill="#ffffff" fill-rule="evenodd"/>
</svg>
